<?xml version="1.0" encoding="utf-8"?>
<!-- Generator: Adobe Illustrator 23.0.1, SVG Export Plug-In . SVG Version: 6.00 Build 0)  -->
<svg version="1.1" id="Layer_1" xmlns="http://www.w3.org/2000/svg" xmlns:xlink="http://www.w3.org/1999/xlink" x="0px" y="0px"
	 viewBox="0 0 237.4 104.4" style="enable-background:new 0 0 237.4 104.4;" xml:space="preserve">
<style type="text/css">
	.st0{fill:#4A4A4F;}
	.st1{fill:#E84610;}
</style>
<path class="st0" d="M41,35.8c-1.5-2.8-3.3-4.8-5.6-6.2c-2.3-1.4-5-2.1-8.1-2.1c-4.1,0-7.6,1.5-10.4,4.5c-2.8,3-4.2,6.8-4.2,11.3
	c0,4.5,1.4,8.2,4.3,11.2c2.9,3,6.4,4.4,10.8,4.4c3.3,0,6.1-0.7,8.3-2.1c2.2-1.4,3.9-3.6,4.9-6.4H54c-1.6,6.5-4.7,11.5-9.3,15.2
	c-4.6,3.7-10.2,5.5-16.9,5.5c-3.9,0-7.5-0.7-10.8-2.1s-6.3-3.4-9-6.2c-2.5-2.6-4.4-5.5-5.8-9C0.7,50.5,0,47,0,43.5
	c0-3.7,0.6-7.2,1.9-10.4c1.3-3.2,3.2-6.1,5.7-8.7c2.8-2.9,5.8-5.1,9.3-6.6c3.4-1.5,7.2-2.3,11.1-2.3c6.4,0,12,1.8,16.8,5.5
	c4.7,3.7,7.8,8.6,9.3,14.8L41,35.8L41,35.8z"/>
<path class="st0" d="M163.3,21.3V0h12.1v69.8h-12.1v-4.3c-2.4,1.9-5,3.3-7.6,4.3c-2.7,0.9-5.6,1.4-8.7,1.4c-3.3,0-6.4-0.5-9.4-1.6
	c-2.9-1.1-5.6-2.6-7.9-4.6c-3.2-2.8-5.6-6-7.3-9.8c-1.7-3.8-2.6-7.7-2.6-11.9c0-3.9,0.8-7.6,2.4-11.2c1.6-3.6,3.8-6.7,6.7-9.3
	c2.4-2.3,5.1-4,8.2-5.2c3.1-1.2,6.4-1.8,9.9-1.8c3.4,0,6.4,0.4,9,1.3C158.5,18,161,19.4,163.3,21.3 M162.8,43.6
	c0-4.5-1.4-8.3-4.3-11.3c-2.9-3-6.4-4.5-10.7-4.5c-4.2,0-7.8,1.5-10.8,4.6c-3,3.1-4.5,6.7-4.5,11c0,4.4,1.5,8.1,4.5,11.1
	c3,3,6.8,4.4,11.4,4.4c4,0,7.4-1.5,10.2-4.5C161.3,51.6,162.8,47.9,162.8,43.6"/>
<path class="st0" d="M195.1,47.3c0.4,3.8,1.9,6.8,4.5,9c2.6,2.2,6,3.3,10.1,3.3c2.8,0,5.2-0.6,7.4-1.7c2.2-1.2,3.9-2.8,5.2-4.8h13.2
	c-2.2,5.7-5.6,10.2-10,13.4c-4.5,3.2-9.6,4.8-15.5,4.8c-3.9,0-7.5-0.7-10.8-2.1s-6.3-3.4-8.9-6.2c-2.5-2.6-4.4-5.6-5.8-9
	c-1.4-3.4-2.1-6.9-2.1-10.4c0-3.7,0.6-7.1,1.9-10.4c1.3-3.2,3.1-6.2,5.6-8.7c2.7-2.8,5.7-5,9.1-6.6c3.4-1.5,6.9-2.3,10.5-2.3
	c4.6,0,8.8,1,12.8,3.1c4,2.1,7.3,5,10.1,8.8c1.7,2.3,2.9,4.8,3.8,7.6c0.8,2.8,1.2,6,1.2,9.7c0,0.3,0,0.7,0,1.3c0,0.6,0,1,0,1.3
	L195.1,47.3L195.1,47.3z M224.1,37.6c-1-3.5-2.8-6.2-5.3-8c-2.5-1.8-5.6-2.8-9.4-2.8c-3.2,0-6.2,1-8.8,3c-2.6,2-4.3,4.6-5.2,7.8
	L224.1,37.6L224.1,37.6z"/>
<path class="st1" d="M59.4,43.2c0-3.7,0.7-7.2,2-10.6c1.4-3.3,3.3-6.3,5.9-8.9c2.6-2.7,5.6-4.7,9-6.1c3.3-1.4,6.8-2.1,10.4-2.1
	c3.8,0,7.3,0.6,10.5,1.9s6.2,3.1,8.9,5.7c2.8,2.7,4.9,5.7,6.4,9.2c1.5,3.5,2.3,7,2.3,10.7c0,4-0.6,7.7-2,11c-1.3,3.3-3.3,6.3-5.9,9
	c-2.6,2.7-5.6,4.8-9,6.2s-7,2.1-10.9,2.1c-4,0-7.6-0.7-10.8-2.1c-3.3-1.4-6.2-3.5-8.9-6.3c-2.6-2.8-4.5-5.8-5.8-9.1
	C60,50.3,59.4,46.9,59.4,43.2 M72,43.1c0,4.9,1.3,8.8,4,11.6C78.7,57.6,82.4,59,87,59c4.5,0,8.1-1.5,10.8-4.4c2.7-2.9,4-6.8,4-11.8
	c0-4.4-1.4-8.1-4.2-10.9s-6.4-4.3-10.6-4.3c-4.4,0-8,1.4-10.8,4.3C73.4,34.8,72,38.5,72,43.1"/>
<g>
	<path class="st1" d="M119.7,83.8v-2.6h2.6v2.6H119.7z M119.8,104.2V88.3h2.3v15.9H119.8z"/>
	<path class="st1" d="M138.8,104.2v-9.8c0-2.8-1.5-4.2-3.9-4.2s-3.9,1.4-3.9,4.2v9.8h-2.3V88.3h2.3v1.7c1.1-1.3,2.7-1.9,4.5-1.9
		c1.7,0,3.1,0.5,4.1,1.5c1.1,1.1,1.6,2.6,1.6,4.4v10.2L138.8,104.2L138.8,104.2z"/>
	<path class="st1" d="M152.4,104.4c-2.7,0-4.8-0.6-6.5-2.3l1.6-1.6c1.3,1.3,3,1.8,4.9,1.8c2.6,0,4.2-0.9,4.2-2.8
		c0-1.4-0.8-2.2-2.6-2.3l-2.6-0.2c-3.1-0.3-4.8-1.6-4.8-4.3c0-2.9,2.4-4.6,5.8-4.6c2.3,0,4.3,0.6,5.7,1.7l-1.5,1.5
		c-1.1-0.9-2.6-1.3-4.2-1.3c-2.3,0-3.6,1-3.6,2.6c0,1.4,0.8,2.2,2.8,2.3l2.6,0.2c2.8,0.3,4.7,1.3,4.7,4.3
		C158.9,102.6,156.3,104.4,152.4,104.4z"/>
	<path class="st1" d="M168.2,104.2c-2.7,0-4.1-1.9-4.1-4.3v-9.8h-2v-1.8h2v-5h2.3v5h3.4v1.8h-3.4v9.7c0,1.4,0.7,2.3,2.2,2.3h1.2v2
		L168.2,104.2L168.2,104.2z"/>
	<path class="st1" d="M175,83.8v-2.6h2.6v2.6H175z M175.1,104.2V88.3h2.3v15.9H175.1z"/>
	<path class="st1" d="M188.4,104.2c-2.7,0-4.1-1.9-4.1-4.3v-9.8h-2v-1.8h2v-5h2.3v5h3.4v1.8h-3.4v9.7c0,1.4,0.7,2.3,2.2,2.3h1.2v2
		L188.4,104.2L188.4,104.2z"/>
	<path class="st1" d="M205.3,104.2v-1.8c-1.1,1.3-2.7,2-4.5,2c-1.7,0-3.1-0.5-4.1-1.5c-1.1-1.1-1.6-2.6-1.6-4.5V88.3h2.3v9.8
		c0,2.8,1.5,4.2,3.9,4.2c2.4,0,4-1.4,4-4.2v-9.8h2.3v15.9L205.3,104.2L205.3,104.2z"/>
	<path class="st1" d="M218.5,104.2c-2.7,0-4.1-1.9-4.1-4.3v-9.8h-2v-1.8h2v-5h2.3v5h3.4v1.8h-3.4v9.7c0,1.4,0.7,2.3,2.2,2.3h1.2v2
		L218.5,104.2L218.5,104.2z"/>
	<path class="st1" d="M226.6,96.9c0,3.5,1.6,5.5,4.7,5.5c1.8,0,2.9-0.6,4.2-1.8l1.6,1.4c-1.6,1.6-3.1,2.5-5.8,2.5
		c-4.2,0-6.9-2.5-6.9-8.1c0-5.1,2.5-8.1,6.5-8.1c4.1,0,6.5,3,6.5,7.7v1.1L226.6,96.9L226.6,96.9z M234.5,92.5
		c-0.6-1.4-2-2.4-3.7-2.4s-3.1,0.9-3.7,2.4c-0.4,0.9-0.4,1.4-0.5,2.6h8.4C234.9,93.9,234.9,93.4,234.5,92.5z"/>
</g>
</svg>
